<svg width="356" height="72" fill="none" xmlns="http://www.w3.org/2000/svg"><path d="M79.56 68H78.3v-9.22h-5.86V68h-1.26V57.72h8.38V68ZM83.142 57.72v1.98c.747-1.52 1.974-2.28 3.68-2.28 1.4 0 2.52.5 3.36 1.5.853 1 1.28 2.327 1.28 3.98 0 1.627-.42 2.94-1.26 3.94-.84.987-1.953 1.48-3.34 1.48-1.733 0-2.947-.74-3.64-2.22v5.74h-1.22V57.72h1.14Zm6.08 1.96c-.626-.813-1.48-1.22-2.56-1.22s-1.933.393-2.56 1.18c-.613.787-.92 1.867-.92 3.24 0 1.347.314 2.413.94 3.2.64.787 1.5 1.18 2.58 1.18 1.053 0 1.894-.393 2.52-1.18.64-.8.96-1.86.96-3.18 0-1.347-.32-2.42-.96-3.22ZM101.787 68h-1.26v-8.8l-5.56 8.8h-1.56V57.72h1.26v8.8l5.56-8.8h1.56V68ZM112.629 57.42c1.48 0 2.653.493 3.52 1.48.88.987 1.32 2.32 1.32 4 0 1.667-.434 2.987-1.3 3.96-.867.96-2.047 1.44-3.54 1.44-1.454 0-2.62-.46-3.5-1.38-.867-.933-1.334-2.187-1.4-3.76h-2.32V68h-1.26V57.72h1.26v4.38h2.36c.146-1.44.653-2.58 1.52-3.42.866-.84 1.98-1.26 3.34-1.26Zm2.6 2.26c-.654-.8-1.527-1.2-2.62-1.2-1.094 0-1.967.4-2.62 1.2-.654.787-.98 1.847-.98 3.18 0 1.36.32 2.433.96 3.22.653.787 1.546 1.18 2.68 1.18 1.093 0 1.96-.393 2.6-1.18.64-.787.96-1.853.96-3.2 0-1.347-.327-2.413-.98-3.2ZM126.712 58.78h-3.82V68h-1.26v-9.22h-3.82v-1.06h8.9v1.06ZM143.186 71.28h-1.26V68h-8.28v3.28h-1.26v-4.34h1.22c.946-1.747 1.42-4.38 1.42-7.9v-1.32h6.72v9.22h1.44v4.34Zm-2.7-4.34v-8.16h-4.24v.68c0 3.227-.447 5.72-1.34 7.48h5.58ZM152.979 68h-1.26v-9.22h-4.2l-.18 5.16c-.053 1.493-.3 2.58-.74 3.26-.44.68-1.087 1.02-1.94 1.02-.373 0-.74-.073-1.1-.22v-1.02c.24.12.613.18 1.12.18.867 0 1.34-1.093 1.42-3.28l.2-6.16h6.68V68ZM163.261 68h-1.26v-4.32h-2.56l-3.62 4.32h-1.64l3.82-4.36c-.933-.067-1.68-.353-2.24-.86-.547-.52-.82-1.22-.82-2.1 0-.907.28-1.627.84-2.16.573-.533 1.333-.8 2.28-.8h5.2V68Zm-1.26-9.22h-3.64c-.68 0-1.213.173-1.6.52-.373.333-.56.8-.56 1.4 0 .6.187 1.073.56 1.42.387.333.92.5 1.6.5h3.64v-3.84ZM175.299 62.84l-3.8 5.16h-1.54l4.46-6-4.02-4.28h1.7l4.74 5.24v-5.24h1.26v5.22l4.74-5.22h1.7l-4.02 4.28 4.46 6h-1.54l-3.8-5.16-1.54 1.6V68h-1.26v-3.56l-1.54-1.6ZM194.443 68h-1.26v-8.8l-5.56 8.8h-1.56V57.72h1.26v8.8l5.56-8.8h1.56V68ZM205.325 65.12c0 .933-.32 1.647-.96 2.14-.64.493-1.553.74-2.74.74h-4.82V57.72h4.82c1.053 0 1.867.213 2.44.64.573.413.86 1.013.86 1.8 0 1.24-.593 2.027-1.78 2.36v.04c1.453.253 2.18 1.107 2.18 2.56Zm-1.66-4.64c0-1.133-.727-1.7-2.18-1.7h-3.42v3.36h3.42c.707 0 1.247-.147 1.62-.44.373-.293.56-.7.56-1.22Zm.4 4.5c0-1.24-.86-1.86-2.58-1.86h-3.42v3.82h3.42c1.72 0 2.58-.653 2.58-1.96ZM211.576 57.42c1.48 0 2.653.493 3.52 1.48.88.987 1.32 2.32 1.32 4 0 1.667-.433 2.987-1.3 3.96-.867.96-2.047 1.44-3.54 1.44-1.493 0-2.687-.487-3.58-1.46-.88-.987-1.32-2.313-1.32-3.98 0-1.653.44-2.973 1.32-3.96.893-.987 2.087-1.48 3.58-1.48Zm2.6 2.26c-.653-.8-1.527-1.2-2.62-1.2-1.093 0-1.967.4-2.62 1.2-.653.787-.98 1.847-.98 3.18 0 1.36.32 2.433.96 3.22.653.787 1.547 1.18 2.68 1.18 1.093 0 1.96-.393 2.6-1.18.64-.787.96-1.853.96-3.2 0-1.347-.327-2.413-.98-3.2ZM225.658 58.78h-3.82V68h-1.26v-9.22h-3.82v-1.06h8.9v1.06ZM235.205 68h-1.26v-4.84h-5.86V68h-1.26V57.72h1.26v4.38h5.86v-4.38h1.26V68ZM237.527 57.72h1.26v4.04h3.34c1 0 1.793.28 2.38.84.586.56.88 1.32.88 2.28 0 .973-.294 1.74-.88 2.3-.587.547-1.38.82-2.38.82h-4.6V57.72Zm6.6 7.16c0-.653-.207-1.16-.62-1.52-.4-.36-.96-.54-1.68-.54h-3.04v4.12h3.04c.733 0 1.3-.173 1.7-.52.4-.36.6-.873.6-1.54Zm3.2-7.16h1.26V68h-1.26V57.72ZM258.927 57.72l-3.64 4.8 4.06 5.48h-1.6l-2.74-3.76a5.965 5.965 0 0 0-.16-.2 3.66 3.66 0 0 0-.18-.28 11.999 11.999 0 0 0-.18-.3c-.147.24-.32.493-.52.76l-2.72 3.78h-1.5l3.98-5.4-3.68-4.88h1.6l2.22 3c.08.093.186.253.32.48.146.213.253.373.32.48l.66-.96 2.28-3h1.48ZM2.56 35c-.587 0-1.08-.2-1.48-.6-.4-.4-.6-.893-.6-1.48V5.84c0-.613.2-1.107.6-1.48.4-.4.893-.6 1.48-.6h18.08c.613 0 1.107.187 1.48.56.373.347.56.813.56 1.4 0 .56-.187 1.013-.56 1.36-.373.347-.867.52-1.48.52h-16v9.72h11.48c.613 0 1.107.187 1.48.56.373.347.56.8.56 1.36s-.187 1.027-.56 1.4c-.373.347-.867.52-1.48.52H4.64v11.76c0 .587-.2 1.08-.6 1.48-.4.4-.893.6-1.48.6ZM29.56 21.32c0-1.6.387-3.027 1.16-4.28a8.754 8.754 0 0 1 3.2-3.04c1.333-.747 2.8-1.12 4.4-1.12 1.6 0 2.787.267 3.56.8.8.507 1.107 1.12.92 1.84-.08.373-.24.667-.48.88a1.552 1.552 0 0 1-.76.36 2.37 2.37 0 0 1-.96-.04c-1.707-.347-3.24-.373-4.6-.08-1.36.293-2.44.84-3.24 1.64-.773.8-1.16 1.813-1.16 3.04h-2.04ZM29.6 35c-.64 0-1.133-.16-1.48-.48-.347-.347-.52-.853-.52-1.52V15.12c0-.64.173-1.133.52-1.48.347-.347.84-.52 1.48-.52.667 0 1.16.173 1.48.52.347.32.52.813.52 1.48V33c0 .64-.173 1.133-.52 1.48-.32.347-.813.52-1.48.52ZM49.493 35c-.587 0-1.08-.187-1.48-.56-.373-.4-.56-.893-.56-1.48v-17.8c0-.613.187-1.107.56-1.48.4-.373.893-.56 1.48-.56.613 0 1.107.187 1.48.56.373.373.56.867.56 1.48v17.8c0 .587-.187 1.08-.56 1.48-.373.373-.867.56-1.48.56Zm0-25.44a2.64 2.64 0 0 1-1.88-.76 2.64 2.64 0 0 1-.76-1.88c0-.72.253-1.333.76-1.84.533-.533 1.16-.8 1.88-.8s1.333.267 1.84.8c.533.507.8 1.12.8 1.84s-.267 1.347-.8 1.88c-.507.507-1.12.76-1.84.76ZM69.403 35.16c-2.213 0-4.186-.467-5.92-1.4a10.76 10.76 0 0 1-4.04-3.92c-.96-1.68-1.44-3.6-1.44-5.76 0-2.187.454-4.107 1.36-5.76.934-1.68 2.214-2.987 3.84-3.92 1.627-.96 3.494-1.44 5.6-1.44 2.08 0 3.867.467 5.36 1.4 1.494.907 2.627 2.173 3.4 3.8.8 1.6 1.2 3.453 1.2 5.56 0 .507-.173.933-.52 1.28-.346.32-.786.48-1.32.48h-16.12v-3.2h16l-1.64 1.12c-.026-1.333-.293-2.52-.8-3.56-.506-1.067-1.226-1.907-2.16-2.52-.933-.613-2.066-.92-3.4-.92-1.52 0-2.826.333-3.92 1-1.066.667-1.88 1.587-2.44 2.76-.56 1.147-.84 2.453-.84 3.92s.334 2.773 1 3.92a7.307 7.307 0 0 0 2.76 2.72c1.174.667 2.52 1 4.04 1a7.72 7.72 0 0 0 2.52-.44c.88-.32 1.587-.68 2.12-1.08.4-.293.827-.44 1.28-.44.48-.027.894.107 1.24.4.454.4.694.84.72 1.32.027.48-.186.893-.64 1.24-.906.72-2.04 1.307-3.4 1.76-1.333.453-2.613.68-3.84.68ZM102.447 35.04c-.587 0-1.08-.187-1.48-.56-.373-.4-.56-.893-.56-1.48v-9.84c0-1.52-.28-2.76-.84-3.72-.56-.96-1.32-1.667-2.28-2.12-.933-.48-2.013-.72-3.24-.72-1.12 0-2.133.227-3.04.68-.907.453-1.627 1.067-2.16 1.84-.533.747-.8 1.613-.8 2.6h-2.52c0-1.68.4-3.173 1.2-4.48.827-1.333 1.947-2.387 3.36-3.16 1.413-.773 3-1.16 4.76-1.16 1.84 0 3.48.4 4.92 1.2 1.467.773 2.614 1.92 3.44 3.44.854 1.52 1.28 3.387 1.28 5.6V33c0 .587-.2 1.08-.6 1.48-.373.373-.853.56-1.44.56Zm-16.44 0c-.587 0-1.08-.187-1.48-.56-.373-.4-.56-.893-.56-1.48V15.16c0-.613.187-1.107.56-1.48.4-.373.894-.56 1.48-.56.614 0 1.107.187 1.48.56.374.373.56.867.56 1.48V33c0 .587-.186 1.08-.56 1.48-.373.373-.866.56-1.48.56ZM121.153 35.16c-2.08 0-3.96-.48-5.64-1.44a11.153 11.153 0 0 1-3.96-4c-.96-1.68-1.44-3.573-1.44-5.68 0-2.107.44-3.987 1.32-5.64.906-1.68 2.133-3 3.68-3.96 1.546-.987 3.293-1.48 5.24-1.48 1.573 0 3.026.333 4.36 1a9.62 9.62 0 0 1 3.36 2.64V5.8c0-.613.186-1.107.56-1.48.4-.373.893-.56 1.48-.56.613 0 1.106.187 1.48.56.373.373.56.867.56 1.48v18.24c0 2.107-.494 4-1.48 5.68a10.85 10.85 0 0 1-3.92 4c-1.654.96-3.52 1.44-5.6 1.44Zm0-3.6c1.36 0 2.573-.32 3.64-.96a7.09 7.09 0 0 0 2.52-2.72c.613-1.147.92-2.427.92-3.84 0-1.44-.307-2.72-.92-3.84a6.867 6.867 0 0 0-2.52-2.64c-1.067-.667-2.28-1-3.64-1-1.334 0-2.547.333-3.64 1-1.067.64-1.92 1.52-2.56 2.64-.614 1.12-.92 2.4-.92 3.84 0 1.413.306 2.693.92 3.84.64 1.147 1.493 2.053 2.56 2.72 1.093.64 2.306.96 3.64.96ZM144.558 35c-1.174 0-2.214-.32-3.12-.96-.907-.64-1.614-1.507-2.12-2.6-.507-1.12-.76-2.4-.76-3.84V5.76c0-.587.186-1.067.56-1.44.373-.373.853-.56 1.44-.56.586 0 1.066.187 1.44.56.373.373.56.853.56 1.44V27.6c0 .987.186 1.8.56 2.44.373.64.853.96 1.44.96h1c.533 0 .96.187 1.28.56.346.373.52.853.52 1.44s-.254 1.067-.76 1.44c-.507.373-1.16.56-1.96.56h-.08ZM155.27 44.6c-.267 0-.587-.08-.96-.24-1.173-.533-1.493-1.373-.96-2.52l12.2-27.56c.533-1.12 1.373-1.44 2.52-.96 1.2.507 1.533 1.347 1 2.52l-12.24 27.52c-.32.827-.84 1.24-1.56 1.24Zm4.72-10.48c-.507.213-.987.24-1.44.08-.427-.187-.773-.533-1.04-1.04l-9.16-17.4c-.267-.507-.307-.987-.12-1.44.213-.48.573-.827 1.08-1.04.507-.213.987-.227 1.44-.04.453.16.8.493 1.04 1l8.76 17.4c.267.507.36 1 .28 1.48-.053.453-.333.787-.84 1ZM187.111 35c-.586 0-1.08-.2-1.48-.6-.4-.4-.6-.893-.6-1.48V5.84c0-.613.2-1.107.6-1.48.4-.4.894-.6 1.48-.6.614 0 1.107.2 1.48.6.4.373.6.867.6 1.48v11.48h18.56V5.84c0-.613.2-1.107.6-1.48.4-.4.894-.6 1.48-.6.614 0 1.107.2 1.48.6.374.373.56.867.56 1.48v27.08c0 .587-.186 1.08-.56 1.48-.373.4-.866.6-1.48.6-.586 0-1.08-.2-1.48-.6-.4-.4-.6-.893-.6-1.48V21h-18.56v11.92c0 .587-.2 1.08-.6 1.48-.373.4-.866.6-1.48.6ZM229.395 35.16c-2.16 0-4.067-.467-5.72-1.4a10.634 10.634 0 0 1-3.92-3.92c-.933-1.68-1.4-3.6-1.4-5.76 0-2.187.467-4.107 1.4-5.76.96-1.68 2.267-2.987 3.92-3.92 1.653-.96 3.56-1.44 5.72-1.44 2.133 0 4.027.48 5.68 1.44a9.973 9.973 0 0 1 3.88 3.92c.96 1.653 1.44 3.573 1.44 5.76 0 2.16-.467 4.08-1.4 5.76a10.333 10.333 0 0 1-3.88 3.92c-1.653.933-3.56 1.4-5.72 1.4Zm0-3.6c1.387 0 2.613-.32 3.68-.96a6.573 6.573 0 0 0 2.48-2.64c.613-1.12.92-2.413.92-3.88s-.307-2.76-.92-3.88c-.587-1.147-1.413-2.04-2.48-2.68-1.067-.64-2.293-.96-3.68-.96s-2.613.32-3.68.96c-1.067.64-1.907 1.533-2.52 2.68-.613 1.12-.92 2.413-.92 3.88s.307 2.76.92 3.88 1.453 2 2.52 2.64c1.067.64 2.293.96 3.68.96ZM255.667 35.2c-1.84 0-3.493-.387-4.96-1.16-1.44-.8-2.587-1.96-3.44-3.48-.826-1.52-1.24-3.387-1.24-5.6v-9.84c0-.587.187-1.067.56-1.44.4-.4.893-.6 1.48-.6s1.067.2 1.44.6c.4.373.6.853.6 1.44v9.84c0 1.493.28 2.733.84 3.72.56.96 1.32 1.68 2.28 2.16.96.453 2.04.68 3.24.68 1.147 0 2.16-.227 3.04-.68.907-.453 1.627-1.067 2.16-1.84.533-.773.8-1.64.8-2.6h2.52c0 1.653-.413 3.147-1.24 4.48-.8 1.333-1.907 2.387-3.32 3.16-1.387.773-2.973 1.16-4.76 1.16Zm8.84-.2c-.586 0-1.08-.187-1.48-.56-.373-.4-.56-.893-.56-1.48V15.12c0-.613.187-1.107.56-1.48.4-.373.894-.56 1.48-.56.614 0 1.107.187 1.48.56.373.373.56.867.56 1.48v17.84c0 .587-.187 1.08-.56 1.48-.373.373-.866.56-1.48.56ZM281.693 35.16c-1.867 0-3.6-.28-5.2-.84-1.574-.587-2.8-1.32-3.68-2.2-.4-.427-.574-.907-.52-1.44.08-.56.346-1.013.8-1.36.533-.427 1.053-.6 1.56-.52.533.053.986.28 1.36.68.453.507 1.173.987 2.16 1.44 1.013.427 2.133.64 3.36.64 1.546 0 2.72-.253 3.52-.76.826-.507 1.253-1.16 1.28-1.96.026-.8-.36-1.493-1.16-2.08-.774-.587-2.2-1.067-4.28-1.44-2.694-.533-4.654-1.333-5.88-2.4-1.2-1.067-1.8-2.373-1.8-3.92 0-1.36.4-2.48 1.2-3.36.8-.907 1.826-1.573 3.08-2 1.253-.453 2.56-.68 3.92-.68 1.76 0 3.32.28 4.68.84 1.36.56 2.44 1.333 3.24 2.32.373.427.546.88.52 1.36-.027.453-.254.84-.68 1.16-.427.293-.934.387-1.52.28-.587-.107-1.08-.347-1.48-.72-.667-.64-1.387-1.08-2.16-1.32-.774-.24-1.667-.36-2.68-.36-1.174 0-2.174.2-3 .6-.8.4-1.2.987-1.2 1.76 0 .48.12.92.36 1.32.266.373.773.72 1.52 1.04.746.293 1.84.587 3.28.88 2 .4 3.573.907 4.72 1.52 1.173.613 2.013 1.333 2.52 2.16.506.8.76 1.733.76 2.8 0 1.227-.334 2.333-1 3.32-.64.987-1.6 1.773-2.88 2.36-1.254.587-2.827.88-4.72.88ZM305.732 35.16c-2.214 0-4.187-.467-5.92-1.4-1.707-.96-3.054-2.267-4.04-3.92-.96-1.68-1.44-3.6-1.44-5.76 0-2.187.453-4.107 1.36-5.76.933-1.68 2.213-2.987 3.84-3.92 1.626-.96 3.493-1.44 5.6-1.44 2.08 0 3.866.467 5.36 1.4 1.493.907 2.626 2.173 3.4 3.8.8 1.6 1.2 3.453 1.2 5.56 0 .507-.174.933-.52 1.28-.347.32-.787.48-1.32.48h-16.12v-3.2h16l-1.64 1.12c-.027-1.333-.294-2.52-.8-3.56-.507-1.067-1.227-1.907-2.16-2.52-.934-.613-2.067-.92-3.4-.92-1.52 0-2.827.333-3.92 1-1.067.667-1.88 1.587-2.44 2.76-.56 1.147-.84 2.453-.84 3.92s.333 2.773 1 3.92a7.297 7.297 0 0 0 2.76 2.72c1.173.667 2.52 1 4.04 1 .826 0 1.666-.147 2.52-.44.88-.32 1.586-.68 2.12-1.08.4-.293.826-.44 1.28-.44.48-.027.893.107 1.24.4.453.4.693.84.72 1.32.026.48-.187.893-.64 1.24-.907.72-2.04 1.307-3.4 1.76-1.334.453-2.614.68-3.84.68Z" fill="#282626"/><g clip-path="url(#a)" fill="#FF8A00"><path d="M338.338 26.67c-.66-.476-1.046-.96-1.181-1.477-.5-1.933-2.114-3.344-3.926-3.344-1.811 0-3.486 1.411-3.986 3.345-.135.516-.52 1-1.181 1.478-.804.582-1.172 1.483-.96 2.352.255 1.045 1.415 1.974 3.003 1.974.671 0 1.308-.172 1.842-.497.355-.217.837-.332 1.281-.332.443 0 .864.114 1.223.331.536.327 1.169.5 1.834.5 1.587 0 2.755-.925 3.011-1.976.212-.869-.157-1.77-.96-2.353ZM328.631 21.85c0-1.051-.83-2.724-1.815-2.724S325 20.799 325 21.849c0 1.001.815 1.816 1.816 1.816a1.817 1.817 0 0 0 1.815-1.816ZM339.586 19.126c-.984 0-1.815 1.673-1.815 2.723 0 1.001.814 1.816 1.815 1.816a1.818 1.818 0 0 0 1.816-1.816c0-1.05-.831-2.723-1.816-2.723ZM334.139 18.218c0 1 .815 1.816 1.816 1.816a1.818 1.818 0 0 0 1.816-1.816c0-1.05-.831-2.724-1.816-2.724-.985 0-1.816 1.673-1.816 2.724ZM330.447 20.034a1.818 1.818 0 0 0 1.816-1.816c0-1.05-.831-2.724-1.816-2.724-.985 0-1.816 1.673-1.816 2.724 0 1 .815 1.816 1.816 1.816ZM352.924 11.177c-.66-.477-1.046-1.021-1.181-1.539-.499-1.933-2.174-3.283-3.986-3.283-1.811 0-3.426 1.35-3.926 3.284-.134.516-.52 1.06-1.181 1.539-.804.582-1.172 1.483-.96 2.352.255 1.045 1.416 1.974 3.003 1.974.671 0 1.309-.172 1.843-.497a2.326 2.326 0 0 1 1.219-.333c.444 0 .925.115 1.284.332.536.327 1.17.5 1.835.5 1.586 0 2.754-.925 3.011-1.976.212-.87-.157-1.77-.961-2.353ZM343.218 6.355c0-1.05-.831-2.724-1.816-2.724-.985 0-1.816 1.673-1.816 2.724 0 1.001.815 1.816 1.816 1.816a1.818 1.818 0 0 0 1.816-1.816ZM354.173 3.631c-.985 0-1.816 1.673-1.816 2.724 0 1.001.815 1.816 1.816 1.816a1.818 1.818 0 0 0 1.816-1.816c0-1.05-.831-2.724-1.816-2.724ZM348.726 2.724c0 1 .814 1.815 1.815 1.815a1.818 1.818 0 0 0 1.816-1.815c0-1.05-.831-2.724-1.816-2.724-.985 0-1.815 1.673-1.815 2.724ZM343.218 2.724c0 1 .815 1.815 1.816 1.815a1.817 1.817 0 0 0 1.815-1.815c0-1.05-.831-2.724-1.815-2.724-.985 0-1.816 1.673-1.816 2.724Z"/></g><defs><clipPath id="a"><path fill="#fff" transform="translate(325)" d="M0 0h31v31H0z"/></clipPath></defs></svg>