<svg width="358" height="43" fill="none" xmlns="http://www.w3.org/2000/svg"><path d="M2.56 33c-.587 0-1.08-.2-1.48-.6-.4-.4-.6-.894-.6-1.48V3.84c0-.614.2-1.107.6-1.48.4-.4.893-.6 1.48-.6h18.08c.613 0 1.107.186 1.48.56.373.346.56.813.56 1.4 0 .56-.187 1.013-.56 1.36-.373.346-.867.52-1.48.52h-16v9.72h11.48c.613 0 1.107.186 1.48.56.373.346.56.8.56 1.36s-.187 1.026-.56 1.4c-.373.346-.867.52-1.48.52H4.64v11.76c0 .586-.2 1.08-.6 1.48-.4.4-.893.6-1.48.6ZM29.56 19.32c0-1.6.387-3.027 1.16-4.28a8.754 8.754 0 0 1 3.2-3.04c1.333-.747 2.8-1.12 4.4-1.12 1.6 0 2.787.266 3.56.8.8.506 1.107 1.12.92 1.84-.08.373-.24.666-.48.88a1.554 1.554 0 0 1-.76.36 2.37 2.37 0 0 1-.96-.04c-1.707-.347-3.24-.374-4.6-.08-1.36.293-2.44.84-3.24 1.64-.773.8-1.16 1.813-1.16 3.04h-2.04ZM29.6 33c-.64 0-1.133-.16-1.48-.48-.347-.347-.52-.854-.52-1.52V13.12c0-.64.173-1.134.52-1.48.347-.347.84-.52 1.48-.52.667 0 1.16.173 1.48.52.347.32.52.813.52 1.48V31c0 .64-.173 1.133-.52 1.48-.32.346-.813.52-1.48.52ZM49.493 33c-.587 0-1.08-.187-1.48-.56-.373-.4-.56-.894-.56-1.48v-17.8c0-.614.187-1.107.56-1.48.4-.374.893-.56 1.48-.56.613 0 1.107.186 1.48.56.373.373.56.866.56 1.48v17.8c0 .586-.187 1.08-.56 1.48-.373.373-.867.56-1.48.56Zm0-25.44a2.64 2.64 0 0 1-1.88-.76 2.64 2.64 0 0 1-.76-1.88c0-.72.253-1.334.76-1.84.533-.534 1.16-.8 1.88-.8s1.333.266 1.84.8c.533.506.8 1.12.8 1.84s-.267 1.346-.8 1.88c-.507.506-1.12.76-1.84.76ZM69.403 33.16c-2.213 0-4.186-.467-5.92-1.4a10.76 10.76 0 0 1-4.04-3.92c-.96-1.68-1.44-3.6-1.44-5.76 0-2.187.454-4.107 1.36-5.76.934-1.68 2.214-2.987 3.84-3.92 1.627-.96 3.494-1.44 5.6-1.44 2.08 0 3.867.466 5.36 1.4 1.494.906 2.627 2.173 3.4 3.8.8 1.6 1.2 3.453 1.2 5.56 0 .506-.173.933-.52 1.28-.346.32-.786.48-1.32.48h-16.12v-3.2h16l-1.64 1.12c-.026-1.334-.293-2.52-.8-3.56-.506-1.067-1.226-1.907-2.16-2.52-.933-.614-2.066-.92-3.4-.92-1.52 0-2.826.333-3.92 1-1.066.666-1.88 1.586-2.44 2.76-.56 1.146-.84 2.453-.84 3.92 0 1.466.334 2.773 1 3.92a7.308 7.308 0 0 0 2.76 2.72c1.174.666 2.52 1 4.04 1a7.72 7.72 0 0 0 2.52-.44c.88-.32 1.587-.68 2.12-1.08.4-.294.827-.44 1.28-.44.48-.027.894.106 1.24.4.454.4.694.84.72 1.32.027.48-.186.893-.64 1.24-.906.72-2.04 1.306-3.4 1.76-1.333.453-2.613.68-3.84.68ZM102.447 33.04c-.587 0-1.08-.187-1.48-.56-.373-.4-.56-.894-.56-1.48v-9.84c0-1.52-.28-2.76-.84-3.72-.56-.96-1.32-1.667-2.28-2.12-.933-.48-2.013-.72-3.24-.72-1.12 0-2.133.226-3.04.68-.907.453-1.627 1.066-2.16 1.84-.533.746-.8 1.613-.8 2.6h-2.52c0-1.68.4-3.174 1.2-4.48.827-1.334 1.947-2.387 3.36-3.16 1.413-.774 3-1.16 4.76-1.16 1.84 0 3.48.4 4.92 1.2 1.467.773 2.614 1.92 3.44 3.44.854 1.52 1.28 3.386 1.28 5.6V31c0 .586-.2 1.08-.6 1.48-.373.373-.853.56-1.44.56Zm-16.44 0c-.587 0-1.08-.187-1.48-.56-.373-.4-.56-.894-.56-1.48V13.16c0-.614.187-1.107.56-1.48.4-.374.894-.56 1.48-.56.614 0 1.107.186 1.48.56.374.373.56.866.56 1.48V31c0 .586-.186 1.08-.56 1.48-.373.373-.866.56-1.48.56ZM121.153 33.16c-2.08 0-3.96-.48-5.64-1.44a11.153 11.153 0 0 1-3.96-4c-.96-1.68-1.44-3.574-1.44-5.68 0-2.107.44-3.987 1.32-5.64.906-1.68 2.133-3 3.68-3.96 1.546-.987 3.293-1.48 5.24-1.48 1.573 0 3.026.333 4.36 1a9.62 9.62 0 0 1 3.36 2.64V3.8c0-.614.186-1.107.56-1.48.4-.374.893-.56 1.48-.56.613 0 1.106.186 1.48.56.373.373.56.866.56 1.48v18.24c0 2.106-.494 4-1.48 5.68a10.85 10.85 0 0 1-3.92 4c-1.654.96-3.52 1.44-5.6 1.44Zm0-3.6c1.36 0 2.573-.32 3.64-.96a7.09 7.09 0 0 0 2.52-2.72c.613-1.147.92-2.427.92-3.84 0-1.44-.307-2.72-.92-3.84a6.867 6.867 0 0 0-2.52-2.64c-1.067-.667-2.28-1-3.64-1-1.334 0-2.547.333-3.64 1-1.067.64-1.92 1.52-2.56 2.64-.614 1.12-.92 2.4-.92 3.84 0 1.413.306 2.693.92 3.84.64 1.146 1.493 2.053 2.56 2.72 1.093.64 2.306.96 3.64.96ZM144.558 33c-1.174 0-2.214-.32-3.12-.96-.907-.64-1.614-1.507-2.12-2.6-.507-1.12-.76-2.4-.76-3.84V3.76c0-.587.186-1.067.56-1.44.373-.374.853-.56 1.44-.56.586 0 1.066.186 1.44.56.373.373.56.853.56 1.44V25.6c0 .986.186 1.8.56 2.44.373.64.853.96 1.44.96h1c.533 0 .96.186 1.28.56.346.373.52.853.52 1.44 0 .586-.254 1.066-.76 1.44-.507.373-1.16.56-1.96.56h-.08ZM155.27 42.6c-.267 0-.587-.08-.96-.24-1.173-.534-1.493-1.374-.96-2.52l12.2-27.56c.533-1.12 1.373-1.44 2.52-.96 1.2.506 1.533 1.346 1 2.52l-12.24 27.52c-.32.826-.84 1.24-1.56 1.24Zm4.72-10.48c-.507.213-.987.24-1.44.08-.427-.187-.773-.534-1.04-1.04l-9.16-17.4c-.267-.507-.307-.987-.12-1.44.213-.48.573-.827 1.08-1.04.507-.214.987-.227 1.44-.04.453.16.8.493 1.04 1l8.76 17.4c.267.506.36 1 .28 1.48-.053.453-.333.786-.84 1ZM187.111 33c-.586 0-1.08-.2-1.48-.6-.4-.4-.6-.894-.6-1.48V3.84c0-.614.2-1.107.6-1.48.4-.4.894-.6 1.48-.6.614 0 1.107.2 1.48.6.4.373.6.866.6 1.48v11.48h18.56V3.84c0-.614.2-1.107.6-1.48.4-.4.894-.6 1.48-.6.614 0 1.107.2 1.48.6.374.373.56.866.56 1.48v27.08c0 .586-.186 1.08-.56 1.48-.373.4-.866.6-1.48.6-.586 0-1.08-.2-1.48-.6-.4-.4-.6-.894-.6-1.48V19h-18.56v11.92c0 .586-.2 1.08-.6 1.48-.373.4-.866.6-1.48.6ZM229.395 33.16c-2.16 0-4.067-.467-5.72-1.4a10.634 10.634 0 0 1-3.92-3.92c-.933-1.68-1.4-3.6-1.4-5.76 0-2.187.467-4.107 1.4-5.76.96-1.68 2.267-2.987 3.92-3.92 1.653-.96 3.56-1.44 5.72-1.44 2.133 0 4.027.48 5.68 1.44a9.973 9.973 0 0 1 3.88 3.92c.96 1.653 1.44 3.573 1.44 5.76 0 2.16-.467 4.08-1.4 5.76a10.333 10.333 0 0 1-3.88 3.92c-1.653.933-3.56 1.4-5.72 1.4Zm0-3.6c1.387 0 2.613-.32 3.68-.96a6.573 6.573 0 0 0 2.48-2.64c.613-1.12.92-2.414.92-3.88 0-1.467-.307-2.76-.92-3.88-.587-1.147-1.413-2.04-2.48-2.68-1.067-.64-2.293-.96-3.68-.96s-2.613.32-3.68.96c-1.067.64-1.907 1.533-2.52 2.68-.613 1.12-.92 2.413-.92 3.88 0 1.466.307 2.76.92 3.88s1.453 2 2.52 2.64c1.067.64 2.293.96 3.68.96ZM255.667 33.2c-1.84 0-3.493-.387-4.96-1.16-1.44-.8-2.587-1.96-3.44-3.48-.826-1.52-1.24-3.387-1.24-5.6v-9.84c0-.587.187-1.067.56-1.44.4-.4.893-.6 1.48-.6s1.067.2 1.44.6c.4.373.6.853.6 1.44v9.84c0 1.493.28 2.733.84 3.72.56.96 1.32 1.68 2.28 2.16.96.453 2.04.68 3.24.68 1.147 0 2.16-.227 3.04-.68.907-.454 1.627-1.067 2.16-1.84.533-.774.8-1.64.8-2.6h2.52c0 1.653-.413 3.146-1.24 4.48-.8 1.333-1.907 2.386-3.32 3.16-1.387.773-2.973 1.16-4.76 1.16Zm8.84-.2c-.586 0-1.08-.187-1.48-.56-.373-.4-.56-.894-.56-1.48V13.12c0-.614.187-1.107.56-1.48.4-.374.894-.56 1.48-.56.614 0 1.107.186 1.48.56.373.373.56.866.56 1.48v17.84c0 .586-.187 1.08-.56 1.48-.373.373-.866.56-1.48.56ZM281.693 33.16c-1.867 0-3.6-.28-5.2-.84-1.574-.587-2.8-1.32-3.68-2.2-.4-.427-.574-.907-.52-1.44.08-.56.346-1.014.8-1.36.533-.427 1.053-.6 1.56-.52.533.053.986.28 1.36.68.453.506 1.173.986 2.16 1.44 1.013.426 2.133.64 3.36.64 1.546 0 2.72-.254 3.52-.76.826-.507 1.253-1.16 1.28-1.96.026-.8-.36-1.494-1.16-2.08-.774-.587-2.2-1.067-4.28-1.44-2.694-.534-4.654-1.334-5.88-2.4-1.2-1.067-1.8-2.374-1.8-3.92 0-1.36.4-2.48 1.2-3.36.8-.907 1.826-1.574 3.08-2 1.253-.454 2.56-.68 3.92-.68 1.76 0 3.32.28 4.68.84 1.36.56 2.44 1.333 3.24 2.32.373.426.546.88.52 1.36-.027.453-.254.84-.68 1.16-.427.293-.934.386-1.52.28-.587-.107-1.08-.347-1.48-.72-.667-.64-1.387-1.08-2.16-1.32-.774-.24-1.667-.36-2.68-.36-1.174 0-2.174.2-3 .6-.8.4-1.2.986-1.2 1.76 0 .48.12.92.36 1.32.266.373.773.72 1.52 1.04.746.293 1.84.586 3.28.88 2 .4 3.573.906 4.72 1.52 1.173.613 2.013 1.333 2.52 2.16.506.8.76 1.733.76 2.8 0 1.226-.334 2.333-1 3.32-.64.986-1.6 1.773-2.88 2.36-1.254.586-2.827.88-4.72.88ZM305.732 33.16c-2.214 0-4.187-.467-5.92-1.4-1.707-.96-3.054-2.267-4.04-3.92-.96-1.68-1.44-3.6-1.44-5.76 0-2.187.453-4.107 1.36-5.76.933-1.68 2.213-2.987 3.84-3.92 1.626-.96 3.493-1.44 5.6-1.44 2.08 0 3.866.466 5.36 1.4 1.493.906 2.626 2.173 3.4 3.8.8 1.6 1.2 3.453 1.2 5.56 0 .506-.174.933-.52 1.28-.347.32-.787.48-1.32.48h-16.12v-3.2h16l-1.64 1.12c-.027-1.334-.294-2.52-.8-3.56-.507-1.067-1.227-1.907-2.16-2.52-.934-.614-2.067-.92-3.4-.92-1.52 0-2.827.333-3.92 1-1.067.666-1.88 1.586-2.44 2.76-.56 1.146-.84 2.453-.84 3.92 0 1.466.333 2.773 1 3.92a7.298 7.298 0 0 0 2.76 2.72c1.173.666 2.52 1 4.04 1 .826 0 1.666-.147 2.52-.44.88-.32 1.586-.68 2.12-1.08.4-.294.826-.44 1.28-.44.48-.027.893.106 1.24.4.453.4.693.84.72 1.32.026.48-.187.893-.64 1.24-.907.72-2.04 1.306-3.4 1.76-1.334.453-2.614.68-3.84.68Z" fill="#fff"/><g clip-path="url(#a)" fill="#FF8A00"><path d="M340.338 26.671c-.66-.477-1.046-.96-1.181-1.478-.5-1.933-2.114-3.343-3.926-3.343-1.811 0-3.486 1.41-3.986 3.344-.135.516-.52 1-1.181 1.478-.804.582-1.172 1.483-.96 2.352.255 1.045 1.415 1.975 3.003 1.975.671 0 1.308-.173 1.842-.498.355-.217.837-.332 1.281-.332.443 0 .864.114 1.223.331.536.327 1.169.5 1.834.5 1.587 0 2.755-.924 3.011-1.976.212-.869-.157-1.77-.96-2.353ZM330.631 21.85c0-1.051-.83-2.725-1.815-2.725S327 20.8 327 21.85c0 1.001.815 1.816 1.816 1.816a1.817 1.817 0 0 0 1.815-1.816ZM341.586 19.125c-.984 0-1.815 1.674-1.815 2.724 0 1.001.814 1.816 1.815 1.816a1.818 1.818 0 0 0 1.816-1.816c0-1.05-.831-2.724-1.816-2.724ZM336.139 18.218c0 1 .815 1.816 1.816 1.816a1.818 1.818 0 0 0 1.816-1.816c0-1.051-.831-2.724-1.816-2.724-.985 0-1.816 1.673-1.816 2.724ZM332.447 20.034a1.818 1.818 0 0 0 1.816-1.816c0-1.051-.831-2.724-1.816-2.724-.985 0-1.816 1.673-1.816 2.724 0 1 .815 1.816 1.816 1.816ZM354.924 11.177c-.66-.477-1.046-1.021-1.18-1.539-.5-1.933-2.175-3.283-3.987-3.283-1.811 0-3.426 1.35-3.926 3.284-.134.516-.52 1.06-1.181 1.538-.804.583-1.172 1.484-.96 2.353.255 1.045 1.416 1.974 3.003 1.974.671 0 1.309-.172 1.843-.497a2.326 2.326 0 0 1 1.219-.333c.444 0 .925.115 1.284.332.536.327 1.17.5 1.835.5 1.586 0 2.754-.925 3.011-1.976.212-.87-.157-1.771-.961-2.353ZM345.218 6.355c0-1.05-.831-2.724-1.816-2.724-.985 0-1.816 1.673-1.816 2.724 0 1 .815 1.816 1.816 1.816a1.818 1.818 0 0 0 1.816-1.816ZM356.173 3.631c-.985 0-1.816 1.673-1.816 2.724 0 1 .815 1.816 1.816 1.816a1.818 1.818 0 0 0 1.816-1.816c0-1.05-.831-2.724-1.816-2.724ZM350.726 2.724c0 1 .814 1.815 1.815 1.815a1.818 1.818 0 0 0 1.816-1.815c0-1.05-.831-2.724-1.816-2.724-.985 0-1.815 1.673-1.815 2.724ZM345.218 2.724c0 1 .815 1.815 1.816 1.815a1.817 1.817 0 0 0 1.815-1.815c0-1.05-.831-2.724-1.815-2.724-.985 0-1.816 1.673-1.816 2.724Z"/></g><defs><clipPath id="a"><path fill="#fff" transform="translate(327)" d="M0 0h31v31H0z"/></clipPath></defs></svg>