<svg width="111" height="96" fill="none" xmlns="http://www.w3.org/2000/svg"><g filter="url(#a)" fill="#FF8A00"><path d="M79.683 52.403C72.888 44.198 64.3 39.68 55.5 39.68s-17.389 4.518-24.183 12.723c-6.107 7.375-9.753 16.67-9.753 24.862 0 3.98 1.217 7.012 3.616 9.011 2.368 1.974 5.495 2.641 8.983 2.641 3.711 0 7.832-.756 11.881-1.499 3.538-.649 6.88-1.262 9.456-1.262 2.223 0 5.358.582 8.676 1.198 7.755 1.44 16.545 3.072 21.622-1.15 2.414-2.008 3.638-5.015 3.638-8.939 0-8.193-3.646-17.487-9.753-24.862ZM80.377 7.851c-2.486-3.666-6.045-5.768-9.766-5.768s-7.28 2.102-9.767 5.768c-2.283 3.368-3.541 7.79-3.541 12.452 0 4.663 1.258 9.085 3.541 12.453 2.486 3.665 6.046 5.768 9.767 5.768 3.72 0 7.28-2.103 9.766-5.768 2.284-3.368 3.542-7.79 3.542-12.453 0-4.662-1.258-9.085-3.542-12.452ZM50.156 7.85c-2.486-3.665-6.046-5.767-9.767-5.767-3.72 0-7.28 2.102-9.766 5.768-2.284 3.367-3.542 7.79-3.542 12.452 0 4.663 1.258 9.085 3.542 12.453 2.486 3.665 6.045 5.768 9.766 5.768s7.28-2.103 9.767-5.768c2.284-3.368 3.541-7.79 3.541-12.453 0-4.662-1.258-9.085-3.541-12.452ZM105.405 36.452c-1.003-3.41-3.151-5.887-6.049-6.976-2.332-.876-4.964-.727-7.412.419-3.374 1.579-6.132 4.839-7.566 8.945-1.171 3.355-1.318 6.901-.41 9.986 1.001 3.41 3.15 5.887 6.048 6.975a8.895 8.895 0 0 0 3.136.564c1.425 0 2.881-.329 4.276-.982 3.374-1.579 6.132-4.84 7.566-8.945 1.171-3.355 1.317-6.901.411-9.986ZM26.622 38.84c-1.434-4.107-4.192-7.367-7.565-8.946-2.448-1.146-5.081-1.294-7.413-.418-2.898 1.089-5.046 3.566-6.049 6.976-.906 3.084-.76 6.63.412 9.986 1.434 4.105 4.191 7.366 7.565 8.945 1.396.653 2.851.982 4.276.982a8.898 8.898 0 0 0 3.137-.564c2.898-1.089 5.046-3.566 6.049-6.976.906-3.084.76-6.63-.412-9.986Z"/></g><defs><filter id="a" x="-.992" y=".083" width="112.985" height="98.834" filterUnits="userSpaceOnUse" color-interpolation-filters="sRGB"><feFlood flood-opacity="0" result="BackgroundImageFix"/><feColorMatrix in="SourceAlpha" values="0 0 0 0 0 0 0 0 0 0 0 0 0 0 0 0 0 0 127 0" result="hardAlpha"/><feOffset dy="4"/><feGaussianBlur stdDeviation="3"/><feComposite in2="hardAlpha" operator="out"/><feColorMatrix values="0 0 0 0 0 0 0 0 0 0 0 0 0 0 0 0 0 0 0.25 0"/><feBlend in2="BackgroundImageFix" result="effect1_dropShadow_44_273"/><feBlend in="SourceGraphic" in2="effect1_dropShadow_44_273" result="shape"/></filter></defs></svg>