<svg width="300" height="59" viewBox="0 0 300 59" fill="none" xmlns="http://www.w3.org/2000/svg">
<path d="M67.0811 55.8044H66.0164V48.1318H61.0647V55.8044H60V47.2497H67.0811V55.8044Z" fill="#282626"/>
<path d="M70.108 47.2497V48.8974C70.7389 47.6325 71.7755 47 73.2176 47C74.4006 47 75.347 47.4161 76.0568 48.2483C76.7778 49.0804 77.1384 50.1845 77.1384 51.5603C77.1384 52.914 76.7835 54.0069 76.0737 54.8391C75.3639 55.6602 74.4231 56.0707 73.2514 56.0707C71.7867 56.0707 70.7615 55.4549 70.1756 54.2233V59H69.1447V47.2497H70.108ZM75.2456 48.8807C74.716 48.2039 73.995 47.8655 73.0824 47.8655C72.1698 47.8655 71.4487 48.1928 70.9192 48.8474C70.4009 49.5021 70.1418 50.4008 70.1418 51.5437C70.1418 52.6644 70.4066 53.552 70.9361 54.2067C71.4769 54.8613 72.2036 55.1886 73.1162 55.1886C74.0063 55.1886 74.716 54.8613 75.2456 54.2067C75.7864 53.5409 76.0568 52.6588 76.0568 51.5603C76.0568 50.4397 75.7864 49.5465 75.2456 48.8807Z" fill="#282626"/>
<path d="M85.8624 55.8044H84.7977V48.4813L80.0996 55.8044H78.7814V47.2497H79.8461V54.5728L84.5442 47.2497H85.8624V55.8044Z" fill="#282626"/>
<path d="M95.024 47C96.2746 47 97.2661 47.4105 97.9984 48.2316C98.742 49.0527 99.1138 50.1623 99.1138 51.5603C99.1138 52.9473 98.7476 54.0458 98.0153 54.8558C97.283 55.6546 96.2859 56.0541 95.024 56.0541C93.796 56.0541 92.8101 55.6713 92.0665 54.9057C91.3342 54.129 90.9399 53.086 90.8835 51.7767H88.9232V55.8044H87.8585V47.2497H88.9232V50.8946H90.9173C91.0413 49.6963 91.4694 48.7476 92.2017 48.0485C92.9341 47.3495 93.8748 47 95.024 47ZM97.221 48.8807C96.669 48.215 95.931 47.8821 95.0071 47.8821C94.0833 47.8821 93.3453 48.215 92.7932 48.8807C92.2412 49.5354 91.9651 50.4175 91.9651 51.527C91.9651 52.6588 92.2355 53.552 92.7763 54.2067C93.3284 54.8613 94.0833 55.1886 95.0409 55.1886C95.9648 55.1886 96.6971 54.8613 97.2379 54.2067C97.7787 53.552 98.0491 52.6644 98.0491 51.5437C98.0491 50.423 97.7731 49.5354 97.221 48.8807Z" fill="#282626"/>
<path d="M106.925 48.1318H103.697V55.8044H102.632V48.1318H99.4043V47.2497H106.925V48.1318Z" fill="#282626"/>
<path d="M120.844 58.534H119.78V55.8044H112.783V58.534H111.719V54.9223H112.749C113.549 53.4688 113.949 51.2774 113.949 48.3481V47.2497H119.628V54.9223H120.844V58.534ZM118.563 54.9223V48.1318H114.98V48.6976C114.98 51.3828 114.603 53.4577 113.848 54.9223H118.563Z" fill="#282626"/>
<path d="M129.12 55.8044H128.055V48.1318H124.506L124.354 52.4258C124.309 53.6685 124.1 54.5728 123.729 55.1387C123.357 55.7046 122.81 55.9875 122.089 55.9875C121.774 55.9875 121.464 55.9265 121.16 55.8044V54.9556C121.363 55.0555 121.678 55.1054 122.106 55.1054C122.839 55.1054 123.239 54.1956 123.306 52.3759L123.475 47.2497H129.12V55.8044Z" fill="#282626"/>
<path d="M137.808 55.8044H136.743V52.2094H134.58L131.521 55.8044H130.136L133.363 52.1761C132.575 52.1207 131.944 51.8821 131.471 51.4605C131.009 51.0277 130.778 50.4452 130.778 49.7129C130.778 48.9584 131.014 48.3592 131.488 47.9154C131.972 47.4716 132.614 47.2497 133.414 47.2497H137.808V55.8044ZM136.743 48.1318H133.668C133.093 48.1318 132.642 48.276 132.316 48.5645C132 48.8419 131.842 49.2302 131.842 49.7295C131.842 50.2288 132 50.6227 132.316 50.9112C132.642 51.1886 133.093 51.3273 133.668 51.3273H136.743V48.1318Z" fill="#282626"/>
<path d="M147.98 51.5104L144.769 55.8044H143.468L147.236 50.8114L143.839 47.2497H145.276L149.281 51.6103V47.2497H150.346V51.5936L154.351 47.2497H155.788L152.391 50.8114L156.159 55.8044H154.858L151.647 51.5104L150.346 52.8419V55.8044H149.281V52.8419L147.98 51.5104Z" fill="#282626"/>
<path d="M164.157 55.8044H163.092V48.4813L158.394 55.8044H157.076V47.2497H158.14V54.5728L162.838 47.2497H164.157V55.8044Z" fill="#282626"/>
<path d="M173.352 53.4078C173.352 54.1845 173.082 54.7781 172.541 55.1886C172 55.5992 171.228 55.8044 170.226 55.8044H166.153V47.2497H170.226C171.116 47.2497 171.803 47.4272 172.287 47.7822C172.772 48.1262 173.014 48.6255 173.014 49.2802C173.014 50.3121 172.513 50.9667 171.51 51.2441V51.2774C172.738 51.4882 173.352 52.1983 173.352 53.4078ZM171.949 49.5465C171.949 48.6033 171.335 48.1318 170.107 48.1318H167.217V50.9279H170.107C170.704 50.9279 171.161 50.8058 171.476 50.5617C171.792 50.3176 171.949 49.9792 171.949 49.5465ZM172.287 53.2913C172.287 52.2594 171.561 51.7434 170.107 51.7434H167.217V54.9223H170.107C171.561 54.9223 172.287 54.3786 172.287 53.2913Z" fill="#282626"/>
<path d="M178.634 47C179.885 47 180.876 47.4105 181.609 48.2316C182.352 49.0527 182.724 50.1623 182.724 51.5603C182.724 52.9473 182.358 54.0458 181.625 54.8558C180.893 55.6546 179.896 56.0541 178.634 56.0541C177.372 56.0541 176.364 55.6491 175.609 54.8391C174.865 54.018 174.494 52.914 174.494 51.527C174.494 50.1512 174.865 49.0527 175.609 48.2316C176.364 47.4105 177.372 47 178.634 47ZM180.831 48.8807C180.279 48.215 179.541 47.8821 178.617 47.8821C177.693 47.8821 176.955 48.215 176.403 48.8807C175.851 49.5354 175.575 50.4175 175.575 51.527C175.575 52.6588 175.846 53.552 176.386 54.2067C176.939 54.8613 177.693 55.1886 178.651 55.1886C179.575 55.1886 180.307 54.8613 180.848 54.2067C181.389 53.552 181.659 52.6644 181.659 51.5437C181.659 50.423 181.383 49.5354 180.831 48.8807Z" fill="#282626"/>
<path d="M190.533 48.1318H187.305V55.8044H186.241V48.1318H183.013V47.2497H190.533V48.1318Z" fill="#282626"/>
<path d="M198.6 55.8044H197.535V51.7767H192.584V55.8044H191.519V47.2497H192.584V50.8946H197.535V47.2497H198.6V55.8044Z" fill="#282626"/>
<path d="M200.562 47.2497H201.627V50.6117H204.449C205.294 50.6117 205.965 50.8447 206.46 51.3107C206.956 51.7767 207.204 52.4092 207.204 53.208C207.204 54.018 206.956 54.656 206.46 55.1221C205.965 55.577 205.294 55.8044 204.449 55.8044H200.562V47.2497ZM206.139 53.208C206.139 52.6644 205.965 52.2427 205.615 51.9431C205.277 51.6436 204.804 51.4938 204.196 51.4938H201.627V54.9223H204.196C204.815 54.9223 205.294 54.7781 205.632 54.4896C205.97 54.19 206.139 53.7628 206.139 53.208ZM208.843 47.2497H209.908V55.8044H208.843V47.2497Z" fill="#282626"/>
<path d="M218.645 47.2497L215.569 51.2441L219 55.8044H217.648L215.333 52.6755C215.299 52.6311 215.254 52.5756 215.198 52.509C215.152 52.4313 215.102 52.3537 215.045 52.276C215 52.1983 214.95 52.1151 214.893 52.0264C214.769 52.2261 214.623 52.4369 214.454 52.6588L212.156 55.8044H210.888L214.251 51.3107L211.142 47.2497H212.494L214.369 49.7462C214.437 49.8239 214.527 49.957 214.64 50.1456C214.764 50.3232 214.854 50.4563 214.91 50.5451C215.237 50.0791 215.423 49.8128 215.468 49.7462L217.395 47.2497H218.645Z" fill="#282626"/>
<path d="M1.75518 29.0358C1.26013 29.0358 0.843834 28.8699 0.506301 28.538C0.168767 28.2062 0 27.7969 0 27.3102V4.84476C0 4.33594 0.168767 3.92667 0.506301 3.61696C0.843834 3.28512 1.26013 3.1192 1.75518 3.1192H17.0117C17.5293 3.1192 17.9455 3.27406 18.2606 3.58378C18.5756 3.87137 18.7331 4.25851 18.7331 4.74521C18.7331 5.20978 18.5756 5.58587 18.2606 5.87346C17.9455 6.16105 17.5293 6.30485 17.0117 6.30485H3.51035V14.3685H13.1976C13.7151 14.3685 14.1314 14.5234 14.4464 14.8331C14.7615 15.1207 14.919 15.4968 14.919 15.9614C14.919 16.4259 14.7615 16.8131 14.4464 17.1228C14.1314 17.4104 13.7151 17.5542 13.1976 17.5542H3.51035V27.3102C3.51035 27.7969 3.34158 28.2062 3.00405 28.538C2.66652 28.8699 2.25023 29.0358 1.75518 29.0358Z" fill="#282626"/>
<path d="M24.5387 17.6869C24.5387 16.3596 24.865 15.176 25.5176 14.1362C26.1926 13.0744 27.0927 12.2337 28.2178 11.6143C29.3429 10.9948 30.5806 10.6851 31.9307 10.6851C33.2808 10.6851 34.2822 10.9063 34.9347 11.3488C35.6098 11.7691 35.8686 12.2779 35.7111 12.8753C35.6436 13.185 35.5086 13.4283 35.306 13.6053C35.126 13.7602 34.9122 13.8597 34.6647 13.904C34.4172 13.9482 34.1472 13.9371 33.8546 13.8708C32.4145 13.5832 31.1206 13.5611 29.973 13.8044C28.8254 14.0478 27.914 14.5013 27.239 15.1649C26.5864 15.8286 26.2601 16.6693 26.2601 17.6869H24.5387ZM24.5725 29.0358C24.0324 29.0358 23.6161 28.9031 23.3236 28.6376C23.0311 28.35 22.8848 27.9297 22.8848 27.3766V12.5434C22.8848 12.0125 23.0311 11.6032 23.3236 11.3156C23.6161 11.028 24.0324 10.8842 24.5725 10.8842C25.135 10.8842 25.5513 11.028 25.8213 11.3156C26.1139 11.5811 26.2601 11.9904 26.2601 12.5434V27.3766C26.2601 27.9075 26.1139 28.3168 25.8213 28.6044C25.5513 28.892 25.135 29.0358 24.5725 29.0358Z" fill="#282626"/>
<path d="M41.359 29.0358C40.8639 29.0358 40.4476 28.8809 40.1101 28.5712C39.7951 28.2394 39.6375 27.8301 39.6375 27.3434V12.5766C39.6375 12.0678 39.7951 11.6585 40.1101 11.3488C40.4476 11.0391 40.8639 10.8842 41.359 10.8842C41.8765 10.8842 42.2928 11.0391 42.6078 11.3488C42.9229 11.6585 43.0804 12.0678 43.0804 12.5766V27.3434C43.0804 27.8301 42.9229 28.2394 42.6078 28.5712C42.2928 28.8809 41.8765 29.0358 41.359 29.0358ZM41.359 7.93086C40.7514 7.93086 40.2226 7.7207 39.7726 7.30037C39.345 6.85792 39.1312 6.33804 39.1312 5.74073C39.1312 5.14342 39.345 4.6346 39.7726 4.21427C40.2226 3.77182 40.7514 3.55059 41.359 3.55059C41.9665 3.55059 42.4841 3.77182 42.9116 4.21427C43.3617 4.6346 43.5867 5.14342 43.5867 5.74073C43.5867 6.33804 43.3617 6.85792 42.9116 7.30037C42.4841 7.7207 41.9665 7.93086 41.359 7.93086Z" fill="#282626"/>
<path d="M58.16 29.1685C56.2923 29.1685 54.6271 28.7814 53.1645 28.0071C51.7243 27.2107 50.588 26.1267 49.7554 24.7551C48.9453 23.3614 48.5403 21.7685 48.5403 19.9766C48.5403 18.1625 48.9228 16.5697 49.6879 15.1981C50.4754 13.8044 51.5556 12.7204 52.9282 11.9461C54.3008 11.1497 55.876 10.7515 57.6537 10.7515C59.4088 10.7515 60.9165 11.1386 62.1766 11.9129C63.4367 12.6651 64.3931 13.7159 65.0457 15.0654C65.7207 16.3927 66.0583 17.9303 66.0583 19.6779C66.0583 20.0983 65.912 20.4522 65.6195 20.7398C65.3269 21.0053 64.9556 21.138 64.5056 21.138H50.903V18.4833H64.4043L63.0205 19.4125C62.9979 18.3063 62.7729 17.3219 62.3454 16.4591C61.9178 15.5742 61.3103 14.8773 60.5227 14.3685C59.7351 13.8597 58.7788 13.6053 57.6537 13.6053C56.371 13.6053 55.2684 13.8818 54.3458 14.4349C53.4457 14.988 52.7594 15.7512 52.2869 16.7246C51.8143 17.6759 51.5781 18.7599 51.5781 19.9766C51.5781 21.1933 51.8593 22.2773 52.4219 23.2286C52.9845 24.1799 53.7608 24.9321 54.7509 25.4851C55.741 26.0382 56.8773 26.3147 58.16 26.3147C58.8575 26.3147 59.5664 26.193 60.2864 25.9497C61.029 25.6842 61.6253 25.3856 62.0754 25.0537C62.4129 24.8104 62.7729 24.6887 63.1555 24.6887C63.5605 24.6666 63.9093 24.7772 64.2018 25.0205C64.5844 25.3524 64.7869 25.7174 64.8094 26.1156C64.8319 26.5138 64.6519 26.8567 64.2693 27.1443C63.5043 27.7416 62.5479 28.2283 61.4003 28.6044C60.2752 28.9805 59.1951 29.1685 58.16 29.1685Z" fill="#282626"/>
<path d="M86.0434 29.069C85.5484 29.069 85.1321 28.9141 84.7945 28.6044C84.4795 28.2726 84.322 27.8633 84.322 27.3766V19.2134C84.322 17.9524 84.0857 16.9237 83.6132 16.1273C83.1406 15.3309 82.4993 14.7446 81.6892 14.3685C80.9016 13.9703 79.9903 13.7712 78.9552 13.7712C78.0101 13.7712 77.155 13.9593 76.39 14.3353C75.6249 14.7114 75.0173 15.2202 74.5673 15.8618C74.1172 16.4812 73.8922 17.2002 73.8922 18.0188H71.7657C71.7657 16.625 72.1033 15.3862 72.7783 14.3022C73.4759 13.196 74.421 12.3222 75.6136 11.6806C76.8062 11.0391 78.1451 10.7183 79.6303 10.7183C81.1829 10.7183 82.5668 11.0501 83.7819 11.7138C85.0196 12.3554 85.9872 13.3066 86.6847 14.5676C87.4048 15.8286 87.7648 17.3772 87.7648 19.2134V27.3766C87.7648 27.8633 87.5961 28.2726 87.2585 28.6044C86.9435 28.9141 86.5385 29.069 86.0434 29.069ZM72.1708 29.069C71.6757 29.069 71.2594 28.9141 70.9219 28.6044C70.6069 28.2726 70.4494 27.8633 70.4494 27.3766V12.5766C70.4494 12.0678 70.6069 11.6585 70.9219 11.3488C71.2594 11.0391 71.6757 10.8842 72.1708 10.8842C72.6883 10.8842 73.1046 11.0391 73.4197 11.3488C73.7347 11.6585 73.8922 12.0678 73.8922 12.5766V27.3766C73.8922 27.8633 73.7347 28.2726 73.4197 28.6044C73.1046 28.9141 72.6883 29.069 72.1708 29.069Z" fill="#282626"/>
<path d="M101.828 29.1685C100.073 29.1685 98.4863 28.7703 97.0686 27.9739C95.6735 27.1554 94.5596 26.0492 93.7271 24.6555C92.917 23.2618 92.5119 21.6911 92.5119 19.9434C92.5119 18.1957 92.8832 16.6361 93.6258 15.2645C94.3909 13.8708 95.426 12.7757 96.7311 11.9793C98.0362 11.1608 99.5101 10.7515 101.153 10.7515C102.48 10.7515 103.707 11.028 104.832 11.5811C105.957 12.112 106.902 12.8421 107.667 13.7712V4.81158C107.667 4.30276 107.825 3.89349 108.14 3.58378C108.477 3.27406 108.894 3.1192 109.389 3.1192C109.906 3.1192 110.322 3.27406 110.638 3.58378C110.953 3.89349 111.11 4.30276 111.11 4.81158V19.9434C111.11 21.6911 110.694 23.2618 109.861 24.6555C109.051 26.0492 107.948 27.1554 106.553 27.9739C105.158 28.7703 103.583 29.1685 101.828 29.1685ZM101.828 26.182C102.975 26.182 103.999 25.9165 104.899 25.3856C105.8 24.8325 106.508 24.0803 107.026 23.1291C107.543 22.1778 107.802 21.1159 107.802 19.9434C107.802 18.7488 107.543 17.6869 107.026 16.7578C106.508 15.8286 105.8 15.0986 104.899 14.5676C103.999 14.0146 102.975 13.738 101.828 13.738C100.703 13.738 99.6789 14.0146 98.7563 14.5676C97.8562 15.0986 97.1361 15.8286 96.5961 16.7578C96.0785 17.6869 95.8198 18.7488 95.8198 19.9434C95.8198 21.1159 96.0785 22.1778 96.5961 23.1291C97.1361 24.0803 97.8562 24.8325 98.7563 25.3856C99.6789 25.9165 100.703 26.182 101.828 26.182Z" fill="#282626"/>
<path d="M121.578 29.0358C120.588 29.0358 119.71 28.7703 118.945 28.2394C118.18 27.7084 117.584 26.9895 117.156 26.0824C116.729 25.1533 116.515 24.0914 116.515 22.8968V4.77839C116.515 4.2917 116.672 3.89349 116.987 3.58378C117.302 3.27406 117.707 3.1192 118.202 3.1192C118.698 3.1192 119.103 3.27406 119.418 3.58378C119.733 3.89349 119.89 4.2917 119.89 4.77839V22.8968C119.89 23.7153 120.048 24.3901 120.363 24.921C120.678 25.4519 121.083 25.7174 121.578 25.7174H122.422C122.872 25.7174 123.232 25.8723 123.502 26.182C123.794 26.4917 123.941 26.8899 123.941 27.3766C123.941 27.8633 123.727 28.2615 123.299 28.5712C122.872 28.8809 122.32 29.0358 121.645 29.0358H121.578Z" fill="#282626"/>
<path d="M130.617 36.9999C130.392 36.9999 130.122 36.9336 129.807 36.8008C128.817 36.3584 128.547 35.6615 128.997 34.7102L139.292 11.8466C139.742 10.9174 140.451 10.6519 141.418 11.0501C142.431 11.4705 142.712 12.1673 142.262 13.1407L131.934 35.9712C131.663 36.657 131.225 36.9999 130.617 36.9999ZM134.6 28.3057C134.172 28.4827 133.767 28.5049 133.385 28.3721C133.025 28.2173 132.732 27.9297 132.507 27.5093L124.778 13.0744C124.553 12.654 124.519 12.2558 124.677 11.8797C124.857 11.4815 125.16 11.1939 125.588 11.017C126.015 10.84 126.42 10.8289 126.803 10.9838C127.186 11.1165 127.478 11.393 127.681 11.8134L135.073 26.2484C135.298 26.6687 135.376 27.0779 135.309 27.4762C135.264 27.8522 135.028 28.1288 134.6 28.3057Z" fill="#282626"/>
<path d="M157.486 29.0358C156.991 29.0358 156.575 28.8699 156.237 28.538C155.899 28.2062 155.731 27.7969 155.731 27.3102V4.84476C155.731 4.33594 155.899 3.92667 156.237 3.61696C156.575 3.28512 156.991 3.1192 157.486 3.1192C158.003 3.1192 158.42 3.28512 158.735 3.61696C159.072 3.92667 159.241 4.33594 159.241 4.84476V14.3685H174.903V4.84476C174.903 4.33594 175.071 3.92667 175.409 3.61696C175.746 3.28512 176.163 3.1192 176.658 3.1192C177.175 3.1192 177.592 3.28512 177.907 3.61696C178.222 3.92667 178.379 4.33594 178.379 4.84476V27.3102C178.379 27.7969 178.222 28.2062 177.907 28.538C177.592 28.8699 177.175 29.0358 176.658 29.0358C176.163 29.0358 175.746 28.8699 175.409 28.538C175.071 28.2062 174.903 27.7969 174.903 27.3102V17.4214H159.241V27.3102C159.241 27.7969 159.072 28.2062 158.735 28.538C158.42 28.8699 158.003 29.0358 157.486 29.0358Z" fill="#282626"/>
<path d="M193.166 29.1685C191.344 29.1685 189.735 28.7814 188.34 28.0071C186.944 27.2107 185.842 26.1267 185.032 24.7551C184.244 23.3614 183.85 21.7685 183.85 19.9766C183.85 18.1625 184.244 16.5697 185.032 15.1981C185.842 13.8044 186.944 12.7204 188.34 11.9461C189.735 11.1497 191.344 10.7515 193.166 10.7515C194.967 10.7515 196.564 11.1497 197.959 11.9461C199.354 12.7204 200.446 13.8044 201.233 15.1981C202.043 16.5697 202.449 18.1625 202.449 19.9766C202.449 21.7685 202.055 23.3614 201.267 24.7551C200.48 26.1267 199.388 27.2107 197.993 28.0071C196.598 28.7814 194.989 29.1685 193.166 29.1685ZM193.166 26.182C194.336 26.182 195.372 25.9165 196.272 25.3856C197.172 24.8546 197.869 24.1246 198.364 23.1954C198.882 22.2663 199.141 21.1933 199.141 19.9766C199.141 18.7599 198.882 17.6869 198.364 16.7578C197.869 15.8065 197.172 15.0654 196.272 14.5344C195.372 14.0035 194.336 13.738 193.166 13.738C191.996 13.738 190.961 14.0035 190.061 14.5344C189.161 15.0654 188.452 15.8065 187.935 16.7578C187.417 17.6869 187.158 18.7599 187.158 19.9766C187.158 21.1933 187.417 22.2663 187.935 23.1954C188.452 24.1246 189.161 24.8546 190.061 25.3856C190.961 25.9165 191.996 26.182 193.166 26.182Z" fill="#282626"/>
<path d="M215.336 29.2017C213.783 29.2017 212.388 28.8809 211.15 28.2394C209.935 27.5757 208.968 26.6134 208.248 25.3524C207.55 24.0914 207.201 22.5428 207.201 20.7066V12.5434C207.201 12.0567 207.359 11.6585 207.674 11.3488C208.011 11.017 208.428 10.851 208.923 10.851C209.418 10.851 209.823 11.017 210.138 11.3488C210.475 11.6585 210.644 12.0567 210.644 12.5434V20.7066C210.644 21.9455 210.88 22.9742 211.353 23.7927C211.825 24.5892 212.467 25.1865 213.277 25.5847C214.087 25.9608 214.998 26.1488 216.011 26.1488C216.978 26.1488 217.833 25.9608 218.576 25.5847C219.341 25.2086 219.949 24.6998 220.399 24.0582C220.849 23.4167 221.074 22.6977 221.074 21.9013H223.2C223.2 23.2729 222.851 24.5117 222.154 25.6179C221.479 26.724 220.545 27.5978 219.352 28.2394C218.182 28.8809 216.843 29.2017 215.336 29.2017ZM222.795 29.0358C222.3 29.0358 221.884 28.8809 221.546 28.5712C221.231 28.2394 221.074 27.8301 221.074 27.3434V12.5434C221.074 12.0346 221.231 11.6253 221.546 11.3156C221.884 11.0059 222.3 10.851 222.795 10.851C223.313 10.851 223.729 11.0059 224.044 11.3156C224.359 11.6253 224.517 12.0346 224.517 12.5434V27.3434C224.517 27.8301 224.359 28.2394 224.044 28.5712C223.729 28.8809 223.313 29.0358 222.795 29.0358Z" fill="#282626"/>
<path d="M237.297 29.1685C235.722 29.1685 234.259 28.9362 232.909 28.4717C231.581 27.985 230.546 27.3766 229.804 26.6466C229.466 26.2926 229.32 25.8944 229.365 25.4519C229.432 24.9874 229.658 24.6113 230.04 24.3237C230.49 23.9697 230.929 23.8259 231.356 23.8923C231.806 23.9365 232.189 24.1246 232.504 24.4564C232.887 24.8768 233.494 25.275 234.327 25.651C235.182 26.005 236.127 26.182 237.162 26.182C238.467 26.182 239.457 25.9718 240.132 25.5515C240.83 25.1312 241.19 24.5892 241.212 23.9255C241.235 23.2618 240.909 22.6866 240.234 22.1999C239.581 21.7132 238.377 21.315 236.622 21.0053C234.349 20.5628 232.695 19.8992 231.66 19.0143C230.648 18.1294 230.141 17.0454 230.141 15.7623C230.141 14.634 230.479 13.7049 231.154 12.9748C231.829 12.2226 232.695 11.6696 233.753 11.3156C234.811 10.9395 235.913 10.7515 237.061 10.7515C238.546 10.7515 239.862 10.9838 241.01 11.4483C242.158 11.9129 243.069 12.5545 243.744 13.373C244.059 13.727 244.205 14.1031 244.183 14.5013C244.16 14.8773 243.969 15.1981 243.609 15.4636C243.249 15.7069 242.821 15.7844 242.326 15.6959C241.831 15.6074 241.415 15.4083 241.077 15.0986C240.515 14.5676 239.907 14.2026 239.255 14.0035C238.602 13.8044 237.848 13.7049 236.993 13.7049C236.003 13.7049 235.159 13.8708 234.462 14.2026C233.787 14.5344 233.449 15.0211 233.449 15.6627C233.449 16.0609 233.55 16.4259 233.753 16.7578C233.978 17.0675 234.406 17.3551 235.036 17.6205C235.666 17.8639 236.588 18.1072 237.803 18.3506C239.491 18.6824 240.819 19.1028 241.786 19.6116C242.776 20.1204 243.485 20.7177 243.913 21.4035C244.34 22.0672 244.554 22.8415 244.554 23.7264C244.554 24.744 244.273 25.6621 243.71 26.4806C243.17 27.2992 242.36 27.9518 241.28 28.4385C240.222 28.9252 238.895 29.1685 237.297 29.1685Z" fill="#282626"/>
<path d="M257.582 29.1685C255.714 29.1685 254.049 28.7814 252.586 28.0071C251.146 27.2107 250.01 26.1267 249.177 24.7551C248.367 23.3614 247.962 21.7685 247.962 19.9766C247.962 18.1625 248.345 16.5697 249.11 15.1981C249.897 13.8044 250.977 12.7204 252.35 11.9461C253.723 11.1497 255.298 10.7515 257.075 10.7515C258.831 10.7515 260.338 11.1386 261.598 11.9129C262.859 12.6651 263.815 13.7159 264.467 15.0654C265.143 16.3927 265.48 17.9303 265.48 19.6779C265.48 20.0983 265.334 20.4522 265.041 20.7398C264.749 21.0053 264.377 21.138 263.927 21.138H250.325V18.4833H263.826L262.442 19.4125C262.42 18.3063 262.195 17.3219 261.767 16.4591C261.34 15.5742 260.732 14.8773 259.944 14.3685C259.157 13.8597 258.201 13.6053 257.075 13.6053C255.793 13.6053 254.69 13.8818 253.768 14.4349C252.868 14.988 252.181 15.7512 251.709 16.7246C251.236 17.6759 251 18.7599 251 19.9766C251 21.1933 251.281 22.2773 251.844 23.2286C252.406 24.1799 253.183 24.9321 254.173 25.4851C255.163 26.0382 256.299 26.3147 257.582 26.3147C258.279 26.3147 258.988 26.193 259.708 25.9497C260.451 25.6842 261.047 25.3856 261.497 25.0537C261.835 24.8104 262.195 24.6887 262.577 24.6887C262.982 24.6666 263.331 24.7772 263.624 25.0205C264.006 25.3524 264.209 25.7174 264.231 26.1156C264.254 26.5138 264.074 26.8567 263.691 27.1443C262.926 27.7416 261.97 28.2283 260.822 28.6044C259.697 28.9805 258.617 29.1685 257.582 29.1685Z" fill="#282626"/>
<g clip-path="url(#clip0_301_1084)">
<path d="M285.096 22.1261C284.539 21.7304 284.214 21.3295 284.1 20.9C283.678 19.2966 282.316 18.1262 280.787 18.1262C279.259 18.1262 277.845 19.2966 277.423 20.9008C277.31 21.3287 276.984 21.7304 276.427 22.1267C275.748 22.61 275.438 23.3573 275.617 24.078C275.832 24.9451 276.811 25.7162 278.15 25.7162C278.717 25.7162 279.255 25.5733 279.705 25.3035C280.004 25.1232 280.411 25.0277 280.786 25.0277C281.16 25.0277 281.515 25.1226 281.818 25.3028C282.27 25.5741 282.805 25.7175 283.366 25.7175C284.705 25.7175 285.69 24.9504 285.907 24.0782C286.085 23.3573 285.774 22.6092 285.096 22.1261Z" fill="#FF8A00"/>
<path d="M276.905 18.1261C276.905 17.2546 276.204 15.8666 275.373 15.8666C274.542 15.8666 273.841 17.2546 273.841 18.1261C273.841 18.9565 274.529 19.6324 275.373 19.6324C276.218 19.6324 276.905 18.9565 276.905 18.1261Z" fill="#FF8A00"/>
<path d="M286.15 15.8666C285.319 15.8666 284.617 17.2546 284.617 18.1261C284.617 18.9565 285.305 19.6324 286.15 19.6324C286.994 19.6324 287.682 18.9565 287.682 18.1261C287.682 17.2546 286.981 15.8666 286.15 15.8666Z" fill="#FF8A00"/>
<path d="M281.553 15.1133C281.553 15.9439 282.241 16.6198 283.085 16.6198C283.93 16.6198 284.617 15.9439 284.617 15.1133C284.617 14.2418 283.916 12.854 283.085 12.854C282.254 12.854 281.553 14.2418 281.553 15.1133Z" fill="#FF8A00"/>
<path d="M278.438 16.6198C279.282 16.6198 279.97 15.9439 279.97 15.1133C279.97 14.2418 279.269 12.854 278.438 12.854C277.607 12.854 276.905 14.2418 276.905 15.1133C276.905 15.9439 277.593 16.6198 278.438 16.6198Z" fill="#FF8A00"/>
<path d="M297.405 9.27213C296.847 8.87638 296.522 8.42529 296.408 7.99579C295.986 6.39237 294.573 5.27222 293.044 5.27222C291.516 5.27222 290.154 6.39237 289.732 7.99658C289.618 8.4247 289.293 8.87638 288.735 9.27292C288.057 9.75618 287.746 10.5033 287.925 11.2242C288.14 12.0911 289.119 12.8622 290.459 12.8622C291.025 12.8622 291.563 12.7195 292.014 12.4495C292.313 12.2692 292.669 12.1737 293.043 12.1737C293.417 12.1737 293.823 12.2686 294.126 12.4488C294.578 12.7201 295.113 12.8637 295.674 12.8637C297.013 12.8637 297.998 12.0964 298.215 11.2242C298.394 10.5033 298.083 9.75539 297.405 9.27213Z" fill="#FF8A00"/>
<path d="M289.214 5.27212C289.214 4.40056 288.513 3.01257 287.682 3.01257C286.851 3.01257 286.15 4.40056 286.15 5.27212C286.15 6.10247 286.837 6.77841 287.682 6.77841C288.526 6.77841 289.214 6.10247 289.214 5.27212Z" fill="#FF8A00"/>
<path d="M298.458 3.01257C297.627 3.01257 296.926 4.40056 296.926 5.27212C296.926 6.10247 297.613 6.77841 298.458 6.77841C299.303 6.77841 299.99 6.10247 299.99 5.27212C299.99 4.40056 299.289 3.01257 298.458 3.01257Z" fill="#FF8A00"/>
<path d="M293.862 2.25954C293.862 3.0899 294.549 3.76584 295.394 3.76584C296.238 3.76584 296.926 3.0899 296.926 2.25954C296.926 1.38798 296.225 0 295.394 0C294.562 0 293.862 1.38798 293.862 2.25954Z" fill="#FF8A00"/>
<path d="M289.214 2.25954C289.214 3.0899 289.902 3.76584 290.746 3.76584C291.591 3.76584 292.278 3.0899 292.278 2.25954C292.278 1.38798 291.577 0 290.746 0C289.915 0 289.214 1.38798 289.214 2.25954Z" fill="#FF8A00"/>
</g>
<defs>
<clipPath id="clip0_301_1084">
<rect width="26.1589" height="25.7175" fill="white" transform="translate(273.841)"/>
</clipPath>
</defs>
</svg>
